Coordinates
version=1
nRows=8
nColumns=40
inDegrees=yes
endheader
time	pelvis_tilt	pelvis_list	pelvis_rotation	pelvis_tx	pelvis_ty	pelvis_tz	hip_flexion_r	hip_adduction_r	hip_rotation_r	knee_angle_r	knee_angle_r_beta	ankle_angle_r	subtalar_angle_r	mtp_angle_r	hip_flexion_l	hip_adduction_l	hip_rotation_l	knee_angle_l	knee_angle_l_beta	ankle_angle_l	subtalar_angle_l	mtp_angle_l	lumbar_extension	lumbar_bending	lumbar_rotation	arm_flex_r	arm_add_r	arm_rot_r	elbow_flex_r	pro_sup_r	wrist_flex_r	wrist_dev_r	arm_flex_l	arm_add_l	arm_rot_l	elbow_flex_l	pro_sup_l	wrist_flex_l	wrist_dev_l
      4.53333000	      2.56269152	      9.10119870	     86.83992838	     -0.03086493	      0.90529455	     -0.11467961	     19.57083821	    -10.39759094	     -4.31342496	     48.16438670	      0.84062713	     14.63443235	      0.00000000	      0.00000000	     19.18361804	    -13.24969386	     -2.04491394	     49.99284422	      0.87253973	     17.61460065	      0.00000000	      0.00000000	    -38.96801926	      3.82433766	      2.03734952	      0.00000000	    -14.99999999	      0.00000000	     75.00017585	     45.00000026	      0.00000000	      0.00000000	      0.00000000	    -14.99999999	      0.00000000	     75.00017585	     45.00000026	      0.00000000	      0.00000000
      4.54167000	      2.57179919	      9.27106248	     86.83419690	     -0.03078768	      0.90343088	     -0.11395433	     19.76765269	    -10.44723592	     -4.26711364	     48.79755812	      0.85167806	     14.90039317	      0.00000000	      0.00000000	     19.35932898	    -13.29068459	     -1.97184672	     50.59183629	      0.88299412	     17.91620363	      0.00000000	      0.00000000	    -39.40132063	      3.81899825	      2.06549998	      0.00000000	    -14.99999999	      0.00000000	     75.00017585	     45.00000026	      0.00000000	      0.00000000	      0.00000000	    -14.99999999	      0.00000000	     75.00017585	     45.00000026	      0.00000000	      0.00000000
      4.55000000	      2.66281764	      9.44871519	     86.89321100	     -0.03091575	      0.90158311	     -0.11334485	     19.87786970	    -10.45697659	     -4.35592891	     49.36282454	      0.86154382	     15.15464269	      0.00000000	      0.00000000	     19.57617764	    -13.39540096	     -1.81228136	     51.24862816	      0.89445730	     18.17971375	      0.00000000	      0.00000000	    -39.83363199	      3.94965751	      2.10441607	      0.00000000	    -14.99999999	      0.00000000	     75.00017585	     45.00000026	      0.00000000	      0.00000000	      0.00000000	    -14.99999999	      0.00000000	     75.00017585	     45.00000026	      0.00000000	      0.00000000
      4.55833000	      2.69268824	      9.59741380	     86.91664466	     -0.03095644	      0.89965062	     -0.11269671	     20.07012926	    -10.51346011	     -4.37206009	     49.97254861	      0.87218551	     15.41016397	      0.00000000	      0.00000000	     19.80293771	    -13.44094258	     -1.68665825	     51.88016028	      0.90547961	     18.45745227	      0.00000000	      0.00000000	    -40.21998174	      4.00229970	      2.08904153	      0.00000000	    -14.99999999	      0.00000000	     75.00017585	     45.00000026	      0.00000000	      0.00000000	      0.00000000	    -14.99999999	      0.00000000	     75.00017585	     45.00000026	      0.00000000	      0.00000000
      4.56667000	      2.79192820	      9.79786113	     86.97878586	     -0.03111593	      0.89780702	     -0.11189971	     20.17949662	    -10.50673023	     -4.42647687	     50.56149850	      0.88246462	     15.68593992	      0.00000000	      0.00000000	     19.99143256	    -13.51206780	     -1.44075447	     52.50625920	      0.91640710	     18.76243396	      0.00000000	      0.00000000	    -40.71624089	      4.15026291	      2.07673517	      0.00000000	    -14.99999999	      0.00000000	     75.00017585	     45.00000026	      0.00000000	      0.00000000	      0.00000000	    -14.99999999	      0.00000000	     75.00017585	     45.00000026	      0.00000000	      0.00000000
      4.57500000	      2.79101506	      9.98445223	     86.95858280	     -0.03107748	      0.89591345	     -0.11120995	     20.35910020	    -10.57540128	     -4.37380228	     51.17645091	      0.89319757	     15.91859315	      0.00000000	      0.00000000	     20.14762821	    -13.53916914	     -1.37871147	     53.11108516	      0.92696331	     19.03823835	      0.00000000	      0.00000000	    -41.16764787	      4.12576372	      2.10931721	      0.00000000	    -14.99999999	      0.00000000	     75.00017585	     45.00000026	      0.00000000	      0.00000000	      0.00000000	    -14.99999999	      0.00000000	     75.00017585	     45.00000026	      0.00000000	      0.00000000
      4.58333000	      2.68825017	     10.24667437	     86.57901476	     -0.03019807	      0.89416365	     -0.11039453	     20.58745129	    -10.53569641	     -3.80655055	     51.83787937	      0.90474167	     16.23337507	      0.00000000	      0.00000000	     20.03656567	    -13.64780795	     -1.80920772	     53.59358440	      0.93538451	     19.23494066	      0.00000000	      0.00000000	    -41.71209504	      3.73921929	      2.36417325	      0.00000000	    -14.99999999	      0.00000000	     75.00017585	     45.00000026	      0.00000000	      0.00000000	      0.00000000	    -14.99999999	      0.00000000	     75.00017585	     45.00000026	      0.00000000	      0.00000000
      4.59167000	      2.76359745	     10.26637522	     86.93947198	     -0.03085841	      0.89194341	     -0.10980766	     20.81196441	    -10.72088763	     -4.25048546	     52.43184362	      0.91510830	     16.46872066	      0.00000000	      0.00000000	     20.55424401	    -13.55476657	     -1.21012886	     54.30271523	      0.94776117	     19.59760489	      0.00000000	      0.00000000	    -41.96946619	      4.06572688	      2.09010002	      0.00000000	    -14.99999999	      0.00000000	     75.00017585	     45.00000026	      0.00000000	      0.00000000	      0.00000000	    -14.99999999	      0.00000000	     75.00017585	     45.00000026	      0.00000000	      0.00000000
